<?xml version="1.0" encoding="utf-8"?>
<!-- Generator: Adobe Illustrator 18.0.0, SVG Export Plug-In . SVG Version: 6.00 Build 0)  -->
<!DOCTYPE svg PUBLIC "-//W3C//DTD SVG 1.1//EN" "http://www.w3.org/Graphics/SVG/1.1/DTD/svg11.dtd">
<svg version="1.1" id="Layer_1" xmlns="http://www.w3.org/2000/svg" xmlns:xlink="http://www.w3.org/1999/xlink" x="0px" y="0px"
	 viewBox="0 0 222 222" enable-background="new 0 0 222 222" xml:space="preserve">
<g>
	<polygon opacity="0.5" fill="#1560BC" points="111.4,117.6 65.8,13.9 132.9,68.4 	"/>
	<polygon opacity="0.5" fill="#1560BC" points="157.1,13.9 111.4,117.6 89.9,68.5 	"/>
	<polygon opacity="0.5" fill="#1560BC" points="111.4,1 83.5,53.9 111.4,117.6 139.4,53.9 	"/>
	<polygon opacity="0.5" fill="#1560BC" points="111.4,117.6 65.8,13.9 132.9,68.4 	"/>
	<polygon opacity="0.5" fill="#1560BC" points="157.1,13.9 111.4,117.6 89.9,68.5 	"/>
	<polygon opacity="0.5" fill="#1560BC" points="111.4,1 83.5,53.9 111.4,117.6 139.4,53.9 	"/>
</g>
<g>
	<polygon opacity="0.5" fill="#1560BC" points="115.6,115.2 2.9,126.5 75.5,79.6 	"/>
	<polygon opacity="0.5" fill="#1560BC" points="31.1,39.8 115.6,115.2 62.2,120.5 	"/>
	<polygon opacity="0.5" fill="#1560BC" points="4.7,79.2 46.4,122.1 115.6,115.2 63.7,68.9 	"/>
	<polygon opacity="0.5" fill="#1560BC" points="115.6,115.2 2.9,126.5 75.5,79.6 	"/>
	<polygon opacity="0.5" fill="#1560BC" points="31.1,39.8 115.6,115.2 62.2,120.5 	"/>
	<polygon opacity="0.5" fill="#1560BC" points="4.7,79.2 46.4,122.1 115.6,115.2 63.7,68.9 	"/>
</g>
<g>
	<polygon opacity="0.5" fill="#1560BC" points="107.7,115.2 192.2,39.8 161.1,120.4 	"/>
	<polygon opacity="0.5" fill="#1560BC" points="220.4,126.5 107.7,115.2 147.8,79.5 	"/>
	<polygon opacity="0.5" fill="#1560BC" points="218.6,79.2 159.6,68.9 107.7,115.2 176.9,122.1 	"/>
	<polygon opacity="0.5" fill="#1560BC" points="107.7,115.2 192.2,39.8 161.1,120.4 	"/>
	<polygon opacity="0.5" fill="#1560BC" points="220.4,126.5 107.7,115.2 147.8,79.5 	"/>
	<polygon opacity="0.5" fill="#1560BC" points="218.6,79.2 159.6,68.9 107.7,115.2 176.9,122.1 	"/>
</g>
<g>
	<polygon opacity="0.5" fill="#1560BC" points="109.5,110.5 207.4,167.6 121.1,162.9 	"/>
	<polygon opacity="0.5" fill="#1560BC" points="133.6,221.2 109.5,110.5 155.9,137.6 	"/>
	<polygon opacity="0.5" fill="#1560BC" points="178.1,204.9 169.6,145.6 109.5,110.5 124.3,178.4 	"/>
	<polygon opacity="0.5" fill="#1560BC" points="109.5,110.5 207.4,167.6 121.1,162.9 	"/>
	<polygon opacity="0.5" fill="#1560BC" points="133.6,221.2 109.5,110.5 155.9,137.6 	"/>
	<polygon opacity="0.5" fill="#1560BC" points="178.1,204.9 169.6,145.6 109.5,110.5 124.3,178.4 	"/>
</g>
<g>
	<polygon opacity="0.5" fill="#1560BC" points="114.4,110.8 90.4,221.5 68.1,138 	"/>
	<polygon opacity="0.5" fill="#1560BC" points="16.6,167.9 114.4,110.8 103,163.3 	"/>
	<polygon opacity="0.5" fill="#1560BC" points="45.9,205.2 99.6,178.8 114.4,110.8 54.4,145.9 	"/>
	<polygon opacity="0.5" fill="#1560BC" points="114.4,110.8 90.4,221.5 68.1,138 	"/>
	<polygon opacity="0.5" fill="#1560BC" points="16.6,167.9 114.4,110.8 103,163.3 	"/>
	<polygon opacity="0.5" fill="#1560BC" points="45.9,205.2 99.6,178.8 114.4,110.8 54.4,145.9 	"/>
</g>
</svg>
